<svg xmlns="http://www.w3.org/2000/svg" viewBox="0 0 200 200" width="200" height="200"><rect width="200" height="200" rx="22" fill="#FFFFFF"/><path transform="translate(52.506 141.022) scale(0.10578 -0.10578)" d="M122 0 30 700H161L229 92H247L335 700H563L651 92H669L737 700H868L776 0H548L458 622H440L350 0Z" fill="#15151C"/><path transform="translate(149.200 34.693) scale(0.03067 -0.03067)" d="M169 0 428 605H156V476H59V698H540V600L288 0Z" fill="#15151C"/><path transform="translate(167.600 34.693) scale(0.03067 -0.03067)" d="M362 0V136H30V232L322 698H469V224H567V136H469V0ZM125 224H362V595H356Z" fill="#15151C"/></svg>