<?xml version="1.0" encoding="UTF-8" standalone="no"?>
<svg xmlns:rdf="http://www.w3.org/1999/02/22-rdf-syntax-ns#" xmlns="http://www.w3.org/2000/svg" xml:space="preserve" height="52.287" viewBox="0 0 170.55525 52.286751" width="170.56" version="1.1" xmlns:cc="http://creativecommons.org/ns#" xmlns:dc="http://purl.org/dc/elements/1.1/"><g transform="matrix(1.25 0 0 -1.25 -619.99 935.84)"><g transform="translate(.16015)"><path d="m73.877 43.525c-2.3138 0-3.998 1.7459-3.998 3.8809v0.02344c0 2.1312 1.6628 3.8555 3.9766 3.8555 2.315 0 3.998-1.7477 3.998-3.8789v-0.01953c0-2.1338-1.6616-3.8613-3.9766-3.8613zm17.984 0c-2.305 0-3.9121 1.7459-3.9121 3.8809v0.02344c0 2.1525 1.6389 3.8555 3.8477 3.8555 1.4462 0 2.3049-0.51289 3.0762-1.3379l-1.0488-1.0605c-0.58875 0.535-1.1139 0.87695-1.9727 0.87695-1.2862 0-2.1777-1.0699-2.1777-2.3574v-0.01953c0-1.2862 0.91274-2.3379 2.1777-2.3379 0.75125 0 1.338 0.3207 1.918 0.8457l1.0508-1.2109c-0.6975-0.68625-1.5427-1.1582-2.959-1.1582zm7.7812 0c-2.315 0-3.998 1.7459-3.998 3.8809v0.02344c0 2.1312 1.661 3.8555 3.9785 3.8555 2.3138 0 3.9961-1.7477 3.9961-3.8789v-0.01953c0-2.1338-1.6616-3.8613-3.9766-3.8613zm33.141 0c-2.3038 0-3.9121 1.7459-3.9121 3.8809v0.02344c0 2.1525 1.6396 3.8555 3.8496 3.8555 1.445 0 2.303-0.51289 3.0742-1.3379l-1.0488-1.0605c-0.59 0.535-1.1178 0.87695-1.9766 0.87695-1.2838 0-2.1738-1.0699-2.1738-2.3574v-0.01953c0-1.2862 0.90883-2.3379 2.1738-2.3379 0.75125 0 1.3412 0.3207 1.9199 0.8457l1.0527-1.2109c-0.69625-0.68625-1.544-1.1582-2.959-1.1582zm18.453 0c-2.3025 0-3.9082 1.7459-3.9082 3.8809v0.02344c0 2.1525 1.6389 3.8555 3.8477 3.8555 1.4438 0 2.3049-0.51289 3.0762-1.3379l-1.0527-1.0605c-0.58875 0.535-1.1138 0.87695-1.9688 0.87695-1.2875 0-2.1777-1.0699-2.1777-2.3574v-0.01953c0-1.2862 0.91149-2.3379 2.1777-2.3379 0.75 0 1.338 0.3207 1.918 0.8457l1.0488-1.2109c-0.6975-0.68625-1.5447-1.1582-2.9609-1.1582zm-104.77 0.02148c-1.5325 0-2.625 0.90172-2.625 2.2617v0.02148c0 1.4912 0.97633 1.9074 2.4863 2.2949 1.2525 0.32125 1.5098 0.53438 1.5098 0.95312v0.02148c0 0.43875-0.40703 0.70703-1.082 0.70703-0.85625 0-1.564-0.35266-2.2402-0.91016l-0.97461 1.1699c0.90125 0.8025 2.0473 1.1992 3.1836 1.1992 1.6175 0 2.7539-0.83617 2.7539-2.3262v-0.02344c0-1.3075-0.85836-1.8512-2.3809-2.25-1.295-0.33-1.6172-0.49188-1.6172-0.98438v-0.02344c0-0.36375 0.33234-0.65234 0.96484-0.65234s1.2855 0.27578 1.9492 0.73828l0.868-1.244c-0.76-0.60875-1.6927-0.95312-2.7852-0.95312zm-45.67 0.10742v4.2871c0 2.2088 1.2336 3.334 3.2461 3.334 2.0162 0 3.291-1.1142 3.291-3.3867v-4.2344h-1.6504v4.2988c0 1.19-0.61094 1.8008-1.6172 1.8008-1.0075 0-1.6211-0.63352-1.6211-1.8535v-4.2461h-1.6484zm8.2207 0v7.5039h1.6309v-4.7695l3.6328 4.7695h1.4043v-7.5039h-1.6309v4.6191l-3.5137-4.6191h-1.5234zm8.541 0v7.5039h1.6504v-7.5039h-1.6504zm2.8848 0 3.0332 7.5566h1.459l3.0332-7.5566h-1.7812l-1.9609 5.2852-1.9609-5.2852h-1.8223zm8.6836 0v7.5039h5.709v-1.4688h-4.0703v-1.5762h3.5371v-1.4688h-3.5371v-1.5215h4.0176v-1.4688h-5.6562zm7.1797 0v7.5039h1.6523v-2.4004h1.2949l1.6074 2.4004h1.9297l-1.834-2.6797c0.955-0.3525 1.6094-1.1174 1.6094-2.3262v-0.02148c0-0.7075-0.22703-1.2968-0.64453-1.7168-0.49375-0.49125-1.2325-0.75976-2.1875-0.75976h-3.4277zm14.684 0v7.5039h1.6504v-7.5039h-1.6504zm2.9902 0v1.5215h2.2832v5.9824h1.6504v-5.9824h2.2832v-1.5215h-6.2168zm6.709 0 2.8828 4.5469v2.957h1.6504v-2.9902l2.8848-4.5137h-1.875l-1.8242 3.0098-1.7891-3.0098h-1.9297zm18.627 0v7.5039h1.6523v-2.9062h3.5801v-1.498h-3.5801v-1.5977h4.0605v-1.502h-5.7129zm25.768 0v7.5039h1.6289v-4.7695l3.6348 4.7695h1.4024v-7.5039h-1.6289v4.6191l-3.5156-4.6191h-1.5215zm8.4668 0v7.5039h1.6309v-4.7695l3.6309 4.7695h1.4043v-7.5039h-1.6309v4.6191l-3.5117-4.6191h-1.5234zm8.4688 0v7.5039h5.7109v-1.4688h-4.0723v-1.5762h3.5371v-1.4688h-3.5371v-1.5215h4.0195v-1.4688h-5.6582zm14.553 0v1.5215h2.2852v5.9824h1.6484v-5.9824h2.2852v-1.5215h-6.2188zm7.5586 0v7.5039h1.6484v-7.5039h-1.6484zm11.316 0v4.2871c0 2.2088 1.2338 3.334 3.25 3.334s3.2871-1.1142 3.2871-3.3867v-4.2344h-1.6465v4.2988c0 1.19-0.61289 1.8008-1.6191 1.8008-1.0075 0-1.6191-0.63352-1.6191-1.8535v-4.2461h-1.6524zm7.6856 0v1.5215h2.2832v5.9824h1.6504v-5.9824h2.2832v-1.5215h-6.2168zm-89.281 1.3945c1.3275 0 2.2715 1.0712 2.2715 2.3574v0.02344c0 1.2825-0.9225 2.334-2.25 2.334s-2.2715-1.0699-2.2715-2.3574v-0.01953c0-1.2862 0.92125-2.3379 2.25-2.3379zm25.768 0c1.3288 0 2.2715 1.0712 2.2715 2.3574v0.02344c0 1.2825-0.9207 2.334-2.252 2.334-1.3288 0-2.2734-1.0699-2.2734-2.3574v-0.01953c0-1.2862 0.92391-2.3379 2.2539-2.3379zm-61.66 0.0957h1.6387c0.80125 0 1.2949 0.36352 1.2949 1.0723v0.02148c0 0.6325-0.46117 1.0586-1.2637 1.0586h-1.6699v-2.1523z" transform="matrix(.8 0 0 -.8 495.99 748.67)" fill="#7c878e"/><path d="m50.498 1c-5.6075 0-10.768 1.3859-14.82 3.7734v27.697c4.0525 2.3325 9.2128 3.7207 14.82 3.7207 5.6612 0 10.823-1.3882 14.877-3.7207v-10.1h-7.4395v6.3281c-2.2212 0.665-4.605 1.0508-7.4375 1.0508-2.8312 0-5.1616-0.38578-7.3828-1.0508v-20.205c2.2212-0.67125 4.5516-1.0586 7.3828-1.0586 2.8325 0 5.2162 0.38734 7.4375 1.0586v4.9414h7.4395v-8.6621c-4.055-2.3864-9.217-3.7723-14.878-3.7723zm35.023 0c-5.605 0-10.823 1.385-14.879 3.7188v27.752c4.0562 2.3325 9.2177 3.7207 14.879 3.7207 5.6075 0 10.824-1.3882 14.875-3.7207v-27.752c-4.055-2.334-9.217-3.719-14.879-3.719zm-84.721 0.94141v30.477c4.055 2.3862 9.2157 3.8281 14.877 3.8281 5.605 0 10.825-1.4419 14.879-3.8281v-30.477h-7.4395v26.756c-2.2738 0.665-4.6095 1.498-7.4395 1.498-2.8312 0-5.1625-0.83305-7.4375-1.498v-26.756h-7.4395zm104.45 0v33.25h6.7188v-23.592h0.2207l14.762 23.592h7.9394v-33.25h-6.7695v23.59h-0.16797l-14.766-23.59h-7.9375zm34.461 0v33.25h6.7168v-23.592h0.21875l14.766 23.592h7.9394v-33.25h-6.7695v23.59h-0.16797l-14.762-23.59h-7.9414zm-54.189 5.4961c2.8312 0 5.1625 0.38664 7.4375 1.0566v20.203c-2.275 0.665-4.6062 1.0527-7.4375 1.0527-2.8312 0-5.16-0.38773-7.4375-1.0527v-20.203c2.2775-0.725 4.6062-1.0566 7.4375-1.0566z" transform="matrix(.8 0 0 -.8 495.99 748.67)" fill="#000e2f"/></g></g></svg>
