<svg class="logo" viewBox="0 0 339 117.3" xml:space="preserve" xmlns="http://www.w3.org/2000/svg">
					<path d="M0,0v13h103.6v38.8H25.9v13h77.7v38.8H0v13h116.5V0H0"></path>
					<path d="M90.6,77.7H12.9V38.9h77.7v-13H0v64.8h90.6V77.7"></path>
					<path d="m182.3 70.4c-0.7-1.2-1.7-2.4-2.9-3.4s-2.7-1.7-4.2-2.2-3.2-0.7-4.9-0.7c-2.9 0-5.6 0.5-7.8 1.7s-3.9 2.7-5.1 4.6c-1.2 2-2.2 4.2-2.9 6.8-0.7 2.7-1 5.1-1 7.8s0.2 5.1 1 7.6c0.5 2.4 1.5 4.6 2.9 6.6 1.2 2 2.9 3.4 5.1 4.6s4.6 1.7 7.8 1.7c4.2 0 7.3-1.2 9.8-3.9 2.4-2.4 3.7-5.9 3.9-7.1h13.2c0 1-0.7 4.4-2.2 7.6s-3.4 5.9-5.6 8.1-5.1 3.9-8.3 5.1-6.6 1.7-10.5 1.7c-4.6 0-9-0.7-12.7-2.4-3.9-1.7-7.1-3.9-9.5-6.8s-4.6-6.4-5.9-10.3c-1.2-3.9-2.2-8.1-2.2-12.7s0.7-8.8 2.2-13 3.4-7.3 5.9-10.3c2.7-2.9 5.9-5.4 9.5-6.8 3.9-1.7 8.1-2.4 12.7-2.4 3.4 0 6.6 0.5 9.5 1.5s5.9 2.4 8.1 4.4c2.4 2 4.4 4.2 5.9 6.8 1.5 2.7 2.4 5.9 2.9 9.5h-13.2c0-1.5-0.7-2.9-1.5-4.1"></path>
					<path d="m224.6 79.4c1.5-0.2 2.9-0.5 4.2-1 1.2-0.5 2.4-1.5 3.2-2.4 0.7-1 1.2-2.4 1.2-4.2 0-2.7-1-4.6-2.7-5.9-1.7-1.5-3.7-2-5.9-2-3.2 0-5.4 1-7.1 3.2-1.5 2-2.4 4.6-2.2 7.8h-11.7c0.2-3.2 0.7-5.9 1.7-8.6s2.4-4.6 4.2-6.6c1.7-2 3.9-3.2 6.6-4.4s5.4-1.5 8.6-1.5c2.4 0 4.9 0.5 7.3 1s4.6 1.7 6.6 3.2 3.4 3.2 4.6 5.4c1.2 2 1.7 4.4 1.7 7.1 0 2.9-0.7 5.6-2.2 7.8s-3.4 3.9-6.4 4.6v0.2c3.4 0.7 5.9 2.4 7.8 4.9 2 2.4 2.9 5.4 2.9 9 0 3.2-0.5 6.1-2 8.6-1.2 2.4-2.9 4.6-4.9 6.4-2.2 1.7-4.4 2.9-7.1 3.9-2.7 0.7-5.6 1.2-8.6 1.2-3.4 0-6.6-0.5-9.3-1.5s-5.1-2.4-7.1-4.4-3.4-4.2-4.6-6.8c-1.2-2.7-1.5-5.9-1.5-9.3h11.7c0 1.7 0.2 3.2 0.7 4.6 0.5 1.5 1.2 2.7 2 3.9 1 1 2 2 3.2 2.4 1.2 0.7 2.9 1 4.6 1 2.7 0 5.1-0.7 7.1-2.4s2.9-4.2 2.9-6.8c0-2.2-0.5-4.2-1.5-5.4s-2-2.2-3.4-2.7c-1.5-0.5-2.9-0.7-4.6-1-1.7-0.2-3.2-0.2-4.6-0.2v-8.6c1.7-0.3 3.1-0.3 4.6-0.5"></path>
					<polyline points="267.1 102.1 267.1 115.3 253.4 115.3 253.4 102.1 267.1 102.1"></polyline>
					<path d="m317.2 111.7c0-2-0.2-3.9-0.2-5.9v-23.2c0-2.7-0.5-4.9-1.7-6.6s-2.7-2.9-4.6-3.9c-2-1-4.2-1.7-6.4-2s-4.6-0.5-6.8-0.5c-2.4 0-4.9 0.2-7.3 0.7s-4.6 1.2-6.6 2.4-3.7 2.7-4.9 4.6c-1.2 1.7-2 4.2-2.2 7.1 0 0 12.2 0 12.5 0.2 0.2-2.4 1-4.2 2.4-5.1 1.2-1 3.2-1.5 5.6-1.5 1.2 0 2.2 0.2 3.2 0.2s1.7 0.2 2.4 0.7c0.7 0.2 1.2 1 1.7 1.7s0.7 2 0.7 3.2-0.5 2.2-1.2 2.9c-1 0.7-2 1.2-3.4 1.5-1.2 0.2-2.9 0.5-4.6 0.7s-3.4 0.5-5.4 0.7c-1.7 0.2-3.7 0.7-5.4 1.2-2 0.5-3.4 1.2-4.9 2.2s-2.4 2.2-3.4 3.9-1.5 3.9-1.5 6.4c0 2.2 0.5 4.2 1.2 5.9s1.7 3.2 3.2 4.2c1.5 1.2 3.2 2 4.9 2.4 1.7 0.5 3.7 0.7 5.9 0.7 2.7 0 5.4-0.5 8.1-1.2 2.4-0.7 4.9-2.2 6.8-4.2 0 0.7 0 1.5 0.2 2.2 0 0.7 0.2 1.5 0.5 2.2h12.5c-0.5-0.7-1-1.9-1.3-3.8zm-11.9-13.2c0 0.7 0 1.5-0.2 2.7s-0.5 2.2-1.2 3.4-1.7 2.2-2.9 2.9-3.2 1.2-5.6 1.2c-1 0-2 0-2.9-0.2-1-0.2-1.7-0.7-2.4-1-0.7-0.2-1.2-1-1.7-1.7-0.2-0.7-0.5-1.7-0.5-2.7 0-1.2 0-2.2 0.5-2.9 0.2-1 0.7-1.5 1.5-2 0.7-0.5 1.5-1 2.4-1.2 0.7-0.2 1.7-0.5 2.7-0.7s2.2-0.2 2.9-0.5c0.7-0.2 2-0.2 2.7-0.5 0.7-0.2 1.7-0.5 2.4-0.7s1.5-0.5 2-1h0.5v4.9z"></path>
					<polyline points="326.8 63.8 326.8 53.7 339 53.7 339 63.8 326.8 63.8"></polyline>
					<polyline points="339 70.8 339 115.6 326.8 115.6 326.8 70.8 339 70.8"></polyline>
				</svg>